<mxfile host="app.diagrams.net" agent="Mozilla/5.0 (Windows NT 10.0; Win64; x64) AppleWebKit/537.36 (KHTML, like Gecko) Chrome/137.0.0.0 Safari/537.36" version="27.1.6">
  <diagram id="C5RBs43oDa-KdzZeNtuy" name="Page-1">
    <mxGraphModel dx="1426" dy="777" grid="1" gridSize="10" guides="1" tooltips="1" connect="1" arrows="1" fold="1" page="1" pageScale="1" pageWidth="827" pageHeight="1169" math="0" shadow="0">
      <root>
        <mxCell id="WIyWlLk6GJQsqaUBKTNV-0" />
        <mxCell id="WIyWlLk6GJQsqaUBKTNV-1" parent="WIyWlLk6GJQsqaUBKTNV-0" />
        <mxCell id="o19wgQIX2m_EY4EeI1vA-0" value="&lt;h1 style=&quot;margin-top: 0px;&quot;&gt;&lt;span style=&quot;background-color: transparent; color: light-dark(rgb(0, 0, 0), rgb(255, 255, 255));&quot;&gt;QueryFlow&lt;/span&gt;&lt;/h1&gt;" style="text;html=1;whiteSpace=wrap;overflow=hidden;rounded=0;" vertex="1" parent="WIyWlLk6GJQsqaUBKTNV-1">
          <mxGeometry x="410" y="30" width="180" height="50" as="geometry" />
        </mxCell>
        <mxCell id="o19wgQIX2m_EY4EeI1vA-12" style="edgeStyle=orthogonalEdgeStyle;rounded=0;orthogonalLoop=1;jettySize=auto;html=1;exitX=1;exitY=0.5;exitDx=0;exitDy=0;entryX=0;entryY=0.5;entryDx=0;entryDy=0;" edge="1" parent="WIyWlLk6GJQsqaUBKTNV-1" source="o19wgQIX2m_EY4EeI1vA-1" target="o19wgQIX2m_EY4EeI1vA-3">
          <mxGeometry relative="1" as="geometry" />
        </mxCell>
        <mxCell id="o19wgQIX2m_EY4EeI1vA-1" value="Start" style="ellipse;whiteSpace=wrap;html=1;" vertex="1" parent="WIyWlLk6GJQsqaUBKTNV-1">
          <mxGeometry x="230" y="100" width="120" height="80" as="geometry" />
        </mxCell>
        <mxCell id="o19wgQIX2m_EY4EeI1vA-2" value="End" style="ellipse;whiteSpace=wrap;html=1;" vertex="1" parent="WIyWlLk6GJQsqaUBKTNV-1">
          <mxGeometry x="450" y="760" width="120" height="80" as="geometry" />
        </mxCell>
        <mxCell id="o19wgQIX2m_EY4EeI1vA-13" style="edgeStyle=orthogonalEdgeStyle;rounded=0;orthogonalLoop=1;jettySize=auto;html=1;exitX=1;exitY=0.5;exitDx=0;exitDy=0;entryX=0;entryY=0.5;entryDx=0;entryDy=0;" edge="1" parent="WIyWlLk6GJQsqaUBKTNV-1" source="o19wgQIX2m_EY4EeI1vA-3" target="o19wgQIX2m_EY4EeI1vA-4">
          <mxGeometry relative="1" as="geometry" />
        </mxCell>
        <mxCell id="o19wgQIX2m_EY4EeI1vA-3" value="Dashboard" style="whiteSpace=wrap;html=1;aspect=fixed;" vertex="1" parent="WIyWlLk6GJQsqaUBKTNV-1">
          <mxGeometry x="430" y="100" width="80" height="80" as="geometry" />
        </mxCell>
        <mxCell id="o19wgQIX2m_EY4EeI1vA-14" style="edgeStyle=orthogonalEdgeStyle;rounded=0;orthogonalLoop=1;jettySize=auto;html=1;exitX=0.5;exitY=1;exitDx=0;exitDy=0;entryX=0.5;entryY=0;entryDx=0;entryDy=0;" edge="1" parent="WIyWlLk6GJQsqaUBKTNV-1" source="o19wgQIX2m_EY4EeI1vA-4" target="o19wgQIX2m_EY4EeI1vA-5">
          <mxGeometry relative="1" as="geometry" />
        </mxCell>
        <mxCell id="o19wgQIX2m_EY4EeI1vA-4" value="Select&lt;div&gt;Document&lt;/div&gt;" style="whiteSpace=wrap;html=1;aspect=fixed;" vertex="1" parent="WIyWlLk6GJQsqaUBKTNV-1">
          <mxGeometry x="570" y="100" width="80" height="80" as="geometry" />
        </mxCell>
        <mxCell id="o19wgQIX2m_EY4EeI1vA-15" style="edgeStyle=orthogonalEdgeStyle;rounded=0;orthogonalLoop=1;jettySize=auto;html=1;exitX=0;exitY=0.5;exitDx=0;exitDy=0;entryX=1;entryY=0.5;entryDx=0;entryDy=0;" edge="1" parent="WIyWlLk6GJQsqaUBKTNV-1" source="o19wgQIX2m_EY4EeI1vA-5" target="o19wgQIX2m_EY4EeI1vA-6">
          <mxGeometry relative="1" as="geometry" />
        </mxCell>
        <mxCell id="o19wgQIX2m_EY4EeI1vA-5" value="Chat&lt;div&gt;Interface&lt;/div&gt;" style="whiteSpace=wrap;html=1;aspect=fixed;" vertex="1" parent="WIyWlLk6GJQsqaUBKTNV-1">
          <mxGeometry x="570" y="240" width="80" height="80" as="geometry" />
        </mxCell>
        <mxCell id="o19wgQIX2m_EY4EeI1vA-16" style="edgeStyle=orthogonalEdgeStyle;rounded=0;orthogonalLoop=1;jettySize=auto;html=1;exitX=0;exitY=0.5;exitDx=0;exitDy=0;entryX=1;entryY=0.5;entryDx=0;entryDy=0;" edge="1" parent="WIyWlLk6GJQsqaUBKTNV-1" source="o19wgQIX2m_EY4EeI1vA-6" target="o19wgQIX2m_EY4EeI1vA-7">
          <mxGeometry relative="1" as="geometry" />
        </mxCell>
        <mxCell id="o19wgQIX2m_EY4EeI1vA-6" value="User Action&lt;div&gt;input: question&lt;/div&gt;" style="whiteSpace=wrap;html=1;aspect=fixed;" vertex="1" parent="WIyWlLk6GJQsqaUBKTNV-1">
          <mxGeometry x="410" y="230" width="100" height="100" as="geometry" />
        </mxCell>
        <mxCell id="o19wgQIX2m_EY4EeI1vA-17" style="edgeStyle=orthogonalEdgeStyle;rounded=0;orthogonalLoop=1;jettySize=auto;html=1;exitX=0.5;exitY=1;exitDx=0;exitDy=0;entryX=0.5;entryY=0;entryDx=0;entryDy=0;" edge="1" parent="WIyWlLk6GJQsqaUBKTNV-1" source="o19wgQIX2m_EY4EeI1vA-7" target="o19wgQIX2m_EY4EeI1vA-8">
          <mxGeometry relative="1" as="geometry" />
        </mxCell>
        <mxCell id="o19wgQIX2m_EY4EeI1vA-7" value="Trigger&lt;br&gt;API query" style="whiteSpace=wrap;html=1;aspect=fixed;" vertex="1" parent="WIyWlLk6GJQsqaUBKTNV-1">
          <mxGeometry x="260" y="240" width="80" height="80" as="geometry" />
        </mxCell>
        <mxCell id="o19wgQIX2m_EY4EeI1vA-18" style="edgeStyle=orthogonalEdgeStyle;rounded=0;orthogonalLoop=1;jettySize=auto;html=1;exitX=1;exitY=0.5;exitDx=0;exitDy=0;entryX=0;entryY=0.5;entryDx=0;entryDy=0;" edge="1" parent="WIyWlLk6GJQsqaUBKTNV-1" source="o19wgQIX2m_EY4EeI1vA-8" target="o19wgQIX2m_EY4EeI1vA-9">
          <mxGeometry relative="1" as="geometry" />
        </mxCell>
        <mxCell id="o19wgQIX2m_EY4EeI1vA-8" value="Ai-service&lt;div&gt;- embedding vector&lt;/div&gt;&lt;div&gt;- find related chunk&lt;/div&gt;&lt;div&gt;- create prompt&lt;/div&gt;&lt;div&gt;- LLM call&lt;/div&gt;" style="whiteSpace=wrap;html=1;aspect=fixed;" vertex="1" parent="WIyWlLk6GJQsqaUBKTNV-1">
          <mxGeometry x="210" y="400" width="180" height="180" as="geometry" />
        </mxCell>
        <mxCell id="o19wgQIX2m_EY4EeI1vA-19" style="edgeStyle=orthogonalEdgeStyle;rounded=0;orthogonalLoop=1;jettySize=auto;html=1;exitX=1;exitY=0.5;exitDx=0;exitDy=0;entryX=0;entryY=0.5;entryDx=0;entryDy=0;" edge="1" parent="WIyWlLk6GJQsqaUBKTNV-1" source="o19wgQIX2m_EY4EeI1vA-9" target="o19wgQIX2m_EY4EeI1vA-10">
          <mxGeometry relative="1" as="geometry" />
        </mxCell>
        <mxCell id="o19wgQIX2m_EY4EeI1vA-20" style="edgeStyle=orthogonalEdgeStyle;rounded=0;orthogonalLoop=1;jettySize=auto;html=1;exitX=0.5;exitY=1;exitDx=0;exitDy=0;entryX=0.5;entryY=0;entryDx=0;entryDy=0;" edge="1" parent="WIyWlLk6GJQsqaUBKTNV-1" source="o19wgQIX2m_EY4EeI1vA-9" target="o19wgQIX2m_EY4EeI1vA-11">
          <mxGeometry relative="1" as="geometry" />
        </mxCell>
        <mxCell id="o19wgQIX2m_EY4EeI1vA-9" value="if have answer ?" style="rhombus;whiteSpace=wrap;html=1;" vertex="1" parent="WIyWlLk6GJQsqaUBKTNV-1">
          <mxGeometry x="460" y="435" width="100" height="110" as="geometry" />
        </mxCell>
        <mxCell id="o19wgQIX2m_EY4EeI1vA-10" value="answer not found" style="whiteSpace=wrap;html=1;aspect=fixed;" vertex="1" parent="WIyWlLk6GJQsqaUBKTNV-1">
          <mxGeometry x="700" y="450" width="80" height="80" as="geometry" />
        </mxCell>
        <mxCell id="o19wgQIX2m_EY4EeI1vA-21" style="edgeStyle=orthogonalEdgeStyle;rounded=0;orthogonalLoop=1;jettySize=auto;html=1;exitX=0.5;exitY=1;exitDx=0;exitDy=0;entryX=0.5;entryY=0;entryDx=0;entryDy=0;" edge="1" parent="WIyWlLk6GJQsqaUBKTNV-1" source="o19wgQIX2m_EY4EeI1vA-11" target="o19wgQIX2m_EY4EeI1vA-2">
          <mxGeometry relative="1" as="geometry" />
        </mxCell>
        <mxCell id="o19wgQIX2m_EY4EeI1vA-11" value="answer generated with sources" style="whiteSpace=wrap;html=1;aspect=fixed;" vertex="1" parent="WIyWlLk6GJQsqaUBKTNV-1">
          <mxGeometry x="470" y="600" width="80" height="80" as="geometry" />
        </mxCell>
      </root>
    </mxGraphModel>
  </diagram>
</mxfile>
